<?xml version="1.0" encoding="UTF-8" standalone="no"?>
<!DOCTYPE svg PUBLIC "-//W3C//DTD SVG 1.1//EN" "http://www.w3.org/Graphics/SVG/1.1/DTD/svg11.dtd">
<svg width="100%" height="100%" viewBox="0 0 1600 294" version="1.1" xmlns="http://www.w3.org/2000/svg" xmlns:xlink="http://www.w3.org/1999/xlink" xml:space="preserve" xmlns:serif="http://www.serif.com/" style="fill-rule:evenodd;clip-rule:evenodd;stroke-linejoin:round;stroke-miterlimit:2;">
    <g id="Artboard1" transform="matrix(1,0,0,0.4895,0,0)">
        <rect x="0" y="0" width="1600" height="600" style="fill:none;"/>
        <g transform="matrix(1,0,0,2.0429,-96.1307,-373.682)">
            <g transform="matrix(0.674769,0,0,0.552795,14.0144,91.7951)">
                <g transform="matrix(1.83415,0,0,1.83415,-128.778,-159.343)">
                    <path d="M228.303,368.42C223.608,372.935 218.379,376.495 212.617,379.1C206.855,381.705 200.702,383.008 194.158,383.008C186.617,383.008 179.539,381.271 172.924,377.798C166.308,374.325 160.546,369.592 155.638,363.601C150.729,357.609 146.853,350.576 144.007,342.501C141.162,334.425 139.739,325.786 139.739,316.582C139.739,307.377 141.162,298.738 144.007,290.662C146.853,282.587 150.729,275.554 155.638,269.562C160.546,263.571 166.308,258.839 172.924,255.365C179.539,251.892 186.617,250.156 194.158,250.156C205.255,250.156 215.214,253.802 224.035,261.096L224.035,192.847L259.033,192.847L259.033,380.403L229.156,380.403L228.303,368.42ZM174.738,316.582C174.738,320.75 175.413,324.614 176.765,328.174C178.117,331.734 179.895,334.903 182.1,337.682C184.305,340.46 186.902,342.631 189.89,344.194C192.877,345.757 196.078,346.538 199.493,346.538C202.907,346.538 206.073,345.757 208.989,344.194C211.906,342.631 214.502,340.46 216.779,337.682C219.055,334.903 220.833,331.734 222.114,328.174C223.394,324.614 224.035,320.75 224.035,316.582C224.035,312.414 223.394,308.55 222.114,304.99C220.833,301.43 219.055,298.26 216.779,295.482C214.502,292.703 211.906,290.532 208.989,288.969C206.073,287.406 202.907,286.625 199.493,286.625C196.078,286.625 192.877,287.406 189.89,288.969C186.902,290.532 184.305,292.703 182.1,295.482C179.895,298.26 178.117,301.43 176.765,304.99C175.413,308.55 174.738,312.414 174.738,316.582Z" style="fill:white;fill-rule:nonzero;"/>
                </g>
                <g transform="matrix(1.83415,0,0,1.83415,-128.778,-159.343)">
                    <path d="M268.21,252.76L303.422,252.76L303.422,380.403L268.21,380.403L268.21,252.76ZM264.155,218.375C264.155,214.555 264.724,210.995 265.862,207.695C267,204.395 268.53,201.53 270.45,199.099C272.371,196.667 274.647,194.757 277.279,193.368C279.911,191.978 282.721,191.284 285.709,191.284C288.697,191.284 291.506,191.978 294.138,193.368C296.77,194.757 299.118,196.667 301.181,199.099C303.244,201.53 304.844,204.395 305.982,207.695C307.121,210.995 307.69,214.555 307.69,218.375C307.69,222.022 307.121,225.539 305.982,228.925C304.844,232.312 303.244,235.221 301.181,237.652C299.118,240.083 296.77,242.037 294.138,243.513C291.506,244.989 288.697,245.727 285.709,245.727C282.721,245.727 279.911,244.989 277.279,243.513C274.647,242.037 272.371,240.083 270.45,237.652C268.53,235.221 267,232.312 265.862,228.925C264.724,225.539 264.155,222.022 264.155,218.375Z" style="fill:white;fill-rule:nonzero;"/>
                </g>
                <g transform="matrix(1.83415,0,0,1.83415,-128.778,-159.343)">
                    <path d="M306.623,286.625L306.623,252.76L321.348,252.76L321.348,246.248C321.348,235.481 322.593,226.537 325.082,219.417C327.572,212.297 330.844,206.653 334.899,202.485C338.954,198.317 343.649,195.365 348.984,193.628C354.319,191.892 359.832,191.023 365.523,191.023C368.368,191.023 371.214,191.197 374.059,191.544C376.904,191.892 379.75,192.413 382.595,193.107L382.595,229.576C378.185,228.535 374.059,228.014 370.218,228.014C366.092,228.014 362.784,228.925 360.294,230.749C357.805,232.572 356.56,235.828 356.56,240.517L356.56,252.76L395.4,252.76L395.4,246.248C395.4,235.481 396.645,226.537 399.134,219.417C401.624,212.297 404.896,206.653 408.951,202.485C413.006,198.317 417.701,195.365 423.036,193.628C428.371,191.892 433.884,191.023 439.575,191.023C442.42,191.023 445.266,191.197 448.111,191.544C450.956,191.892 453.802,192.413 456.647,193.107L456.647,229.576C452.237,228.535 448.111,228.014 444.27,228.014C440.144,228.014 436.836,228.925 434.346,230.749C431.857,232.572 430.612,235.828 430.612,240.517L430.612,252.76L456.647,252.76L456.647,286.625L430.612,286.625L430.612,380.403L395.4,380.403L395.4,286.625L356.56,286.625L356.56,380.403L321.348,380.403L321.348,286.625L306.623,286.625Z" style="fill:white;fill-rule:nonzero;"/>
                </g>
                <g transform="matrix(1.83415,0,0,1.83415,-128.778,-159.343)">
                    <path d="M551.186,366.076C549.621,367.812 547.345,369.722 544.357,371.806C541.37,373.89 537.884,375.801 533.9,377.537C529.917,379.274 525.578,380.707 520.883,381.835C516.188,382.964 511.422,383.529 506.584,383.529C498.475,383.529 491.006,381.835 484.177,378.449C477.348,375.063 471.479,370.374 466.571,364.382C461.662,358.391 457.821,351.358 455.047,343.282C452.272,335.207 450.885,326.48 450.885,317.103C450.885,307.725 452.272,298.998 455.047,290.923C457.821,282.848 461.662,275.814 466.571,269.823C471.479,263.832 477.348,259.143 484.177,255.756C491.006,252.37 498.475,250.677 506.584,250.677C515.263,250.677 523.052,252.37 529.952,255.756C536.852,259.143 542.721,263.788 547.558,269.693C552.396,275.597 556.13,282.587 558.762,290.662C561.394,298.738 562.71,307.464 562.71,316.842C562.71,319.1 562.568,321.444 562.283,323.875C561.999,326.307 561.714,328.564 561.43,330.648L486.951,330.388C488.943,336.64 492.037,341.112 496.234,343.803C500.431,346.495 505.162,347.841 510.426,347.841C514.125,347.841 517.361,347.407 520.136,346.538C522.91,345.67 525.257,344.672 527.178,343.543C529.099,342.414 530.628,341.285 531.766,340.156C532.904,339.028 533.687,338.203 534.114,337.682L551.186,366.076ZM527.498,306.422C527.214,300.691 525.435,295.785 522.163,291.704C518.891,287.623 514.196,285.583 508.078,285.583C502.672,285.583 498.013,287.276 494.1,290.662C490.188,294.049 487.52,299.302 486.097,306.422L527.498,306.422Z" style="fill:white;fill-rule:nonzero;"/>
                </g>
                <g transform="matrix(1.83415,0,0,1.83415,-128.778,-159.343)">
                    <path d="M600.696,380.403L565.484,380.403L565.484,252.76L595.361,252.76L596.855,270.214C600.127,264.309 604.04,259.447 608.593,255.626C613.145,251.805 618.48,249.895 624.598,249.895C626.163,249.895 627.835,250.025 629.613,250.286C631.391,250.546 633.277,251.111 635.268,251.979L634.841,292.356C632.423,291.14 629.969,290.185 627.479,289.49C624.989,288.796 622.535,288.448 620.116,288.448C614.852,288.448 610.3,290.402 606.458,294.309C602.617,298.217 600.696,304.773 600.696,313.977L600.696,380.403Z" style="fill:white;fill-rule:nonzero;"/>
                </g>
                <g transform="matrix(1.83415,0,0,1.83415,-128.778,-159.343)">
                    <path d="M730.874,366.076C729.309,367.812 727.033,369.722 724.045,371.806C721.058,373.89 717.572,375.801 713.588,377.537C709.605,379.274 705.266,380.707 700.571,381.835C695.876,382.964 691.11,383.529 686.272,383.529C678.163,383.529 670.694,381.835 663.865,378.449C657.036,375.063 651.167,370.374 646.259,364.382C641.35,358.391 637.509,351.358 634.735,343.282C631.961,335.207 630.573,326.48 630.573,317.103C630.573,307.725 631.961,298.998 634.735,290.923C637.509,282.848 641.35,275.814 646.259,269.823C651.167,263.832 657.036,259.143 663.865,255.756C670.694,252.37 678.163,250.677 686.272,250.677C694.951,250.677 702.74,252.37 709.64,255.756C716.541,259.143 722.409,263.788 727.246,269.693C732.084,275.597 735.818,282.587 738.45,290.662C741.082,298.738 742.398,307.464 742.398,316.842C742.398,319.1 742.256,321.444 741.971,323.875C741.687,326.307 741.402,328.564 741.118,330.648L666.639,330.388C668.631,336.64 671.725,341.112 675.922,343.803C680.119,346.495 684.85,347.841 690.114,347.841C693.813,347.841 697.049,347.407 699.824,346.538C702.598,345.67 704.945,344.672 706.866,343.543C708.787,342.414 710.316,341.285 711.454,340.156C712.592,339.028 713.375,338.203 713.802,337.682L730.874,366.076ZM707.186,306.422C706.902,300.691 705.123,295.785 701.851,291.704C698.579,287.623 693.884,285.583 687.766,285.583C682.36,285.583 677.701,287.276 673.788,290.662C669.876,294.049 667.208,299.302 665.785,306.422L707.186,306.422Z" style="fill:white;fill-rule:nonzero;"/>
                </g>
                <g transform="matrix(1.83415,0,0,1.83415,-128.778,-159.343)">
                    <path d="M780.385,380.403L745.173,380.403L745.173,252.76L775.049,252.76L776.543,269.693C780.811,263.788 785.72,259.056 791.268,255.496C796.817,251.936 802.792,250.156 809.194,250.156C815.881,250.156 821.714,251.545 826.694,254.323C831.673,257.102 835.799,261.053 839.071,266.176C842.343,271.299 844.762,277.377 846.327,284.411C847.892,291.444 848.675,299.215 848.675,307.725L848.675,380.403L813.463,380.403L813.463,310.33C813.463,304.252 812.36,299.215 810.155,295.221C807.95,291.227 803.788,289.23 797.67,289.23C792.549,289.23 788.387,291.531 785.186,296.133C781.985,300.735 780.385,306.683 780.385,313.977L780.385,380.403Z" style="fill:white;fill-rule:nonzero;"/>
                </g>
                <g transform="matrix(1.83415,0,0,1.83415,-128.778,-159.343)">
                    <path d="M861.906,252.76L869.375,218.896L897.118,218.896L897.118,252.76L924.647,252.76L924.647,286.625L897.118,286.625L897.118,326.741C897.118,334.035 898.114,339.288 900.105,342.501C902.097,345.714 905.441,347.32 910.136,347.32C912.127,347.32 914.297,347.059 916.644,346.538C918.992,346.017 921.659,345.323 924.647,344.455L924.647,378.319C915.115,381.445 906.223,383.008 897.971,383.008C887.301,383.008 878.623,379.969 871.936,373.89C865.249,367.812 861.906,357.913 861.906,344.194L861.906,286.625L846.967,286.625L846.967,252.76L861.906,252.76Z" style="fill:white;fill-rule:nonzero;"/>
                </g>
                <g transform="matrix(1.83415,0,0,1.83415,-128.778,-159.343)">
                    <path d="M1064.86,366.076C1063.29,367.812 1061.01,369.722 1058.03,371.806C1055.04,373.89 1051.55,375.801 1047.57,377.537C1043.59,379.274 1039.25,380.707 1034.55,381.835C1029.86,382.964 1025.09,383.529 1020.25,383.529C1012.14,383.529 1004.67,381.835 997.845,378.449C991.016,375.063 985.148,370.374 980.239,364.382C975.331,358.391 971.49,351.358 968.716,343.282C965.941,335.207 964.554,326.48 964.554,317.103C964.554,307.725 965.941,298.998 968.716,290.923C971.49,282.848 975.331,275.814 980.239,269.823C985.148,263.832 991.016,259.143 997.845,255.756C1004.67,252.37 1012.14,250.677 1020.25,250.677C1028.93,250.677 1036.72,252.37 1043.62,255.756C1050.52,259.143 1056.39,263.788 1061.23,269.693C1066.06,275.597 1069.8,282.587 1072.43,290.662C1075.06,298.738 1076.38,307.464 1076.38,316.842C1076.38,319.1 1076.24,321.444 1075.95,323.875C1075.67,326.307 1075.38,328.564 1075.1,330.648L1000.62,330.388C1002.61,336.64 1005.71,341.112 1009.9,343.803C1014.1,346.495 1018.83,347.841 1024.09,347.841C1027.79,347.841 1031.03,347.407 1033.8,346.538C1036.58,345.67 1038.93,344.672 1040.85,343.543C1042.77,342.414 1044.3,341.285 1045.43,340.156C1046.57,339.028 1047.36,338.203 1047.78,337.682L1064.86,366.076ZM1041.17,306.422C1040.88,300.691 1039.1,295.785 1035.83,291.704C1032.56,287.623 1027.87,285.583 1021.75,285.583C1016.34,285.583 1011.68,287.276 1007.77,290.662C1003.86,294.049 1001.19,299.302 999.766,306.422L1041.17,306.422Z" style="fill:white;fill-rule:nonzero;"/>
                </g>
                <g transform="matrix(1.83415,0,0,1.83415,-128.778,-159.343)">
                    <path d="M1161.53,368.42C1156.83,372.935 1151.61,376.495 1145.84,379.1C1140.08,381.705 1133.93,383.008 1127.38,383.008C1119.84,383.008 1112.77,381.271 1106.15,377.798C1099.53,374.325 1093.77,369.592 1088.86,363.601C1083.95,357.609 1080.08,350.576 1077.23,342.501C1074.39,334.425 1072.96,325.786 1072.96,316.582C1072.96,307.377 1074.39,298.738 1077.23,290.662C1080.08,282.587 1083.95,275.554 1088.86,269.562C1093.77,263.571 1099.53,258.839 1106.15,255.365C1112.77,251.892 1119.84,250.156 1127.38,250.156C1138.48,250.156 1148.44,253.802 1157.26,261.096L1157.26,192.847L1192.26,192.847L1192.26,380.403L1162.38,380.403L1161.53,368.42ZM1107.96,316.582C1107.96,320.75 1108.64,324.614 1109.99,328.174C1111.34,331.734 1113.12,334.903 1115.33,337.682C1117.53,340.46 1120.13,342.631 1123.12,344.194C1126.1,345.757 1129.3,346.538 1132.72,346.538C1136.13,346.538 1139.3,345.757 1142.21,344.194C1145.13,342.631 1147.73,340.46 1150,337.682C1152.28,334.903 1154.06,331.734 1155.34,328.174C1156.62,324.614 1157.26,320.75 1157.26,316.582C1157.26,312.414 1156.62,308.55 1155.34,304.99C1154.06,301.43 1152.28,298.26 1150,295.482C1147.73,292.703 1145.13,290.532 1142.21,288.969C1139.3,287.406 1136.13,286.625 1132.72,286.625C1129.3,286.625 1126.1,287.406 1123.12,288.969C1120.13,290.532 1117.53,292.703 1115.33,295.482C1113.12,298.26 1111.34,301.43 1109.99,304.99C1108.64,308.55 1107.96,312.414 1107.96,316.582Z" style="fill:white;fill-rule:nonzero;"/>
                </g>
                <g transform="matrix(1.83415,0,0,1.83415,-128.778,-159.343)">
                    <path d="M1312.83,372.588C1312.83,382.313 1311.73,391.604 1309.53,400.461C1307.32,409.318 1303.76,417.089 1298.86,423.775C1293.95,430.461 1287.65,435.758 1279.97,439.665C1272.29,443.573 1262.97,445.526 1252.01,445.526C1246.18,445.526 1240.45,444.832 1234.83,443.442C1229.21,442.053 1224.06,440.316 1219.36,438.232C1214.67,436.149 1210.65,433.848 1207.3,431.329C1203.96,428.811 1201.65,426.337 1200.37,423.905L1220.64,393.688C1221.64,395.077 1223.13,396.467 1225.12,397.856C1227.12,399.245 1229.46,400.548 1232.17,401.763C1234.87,402.979 1237.79,403.977 1240.91,404.759C1244.05,405.54 1247.32,405.931 1250.73,405.931C1258.84,405.931 1265.35,403.5 1270.26,398.637C1275.17,393.775 1277.62,385.873 1277.62,374.932L1277.62,369.722C1273.35,373.196 1268.69,375.844 1263.64,377.668C1258.59,379.491 1253.29,380.403 1247.74,380.403C1240.2,380.403 1233.13,378.71 1226.51,375.323C1219.89,371.937 1214.13,367.291 1209.22,361.387C1204.32,355.482 1200.44,348.579 1197.59,340.677C1194.75,332.776 1193.33,324.31 1193.33,315.279C1193.33,306.249 1194.75,297.783 1197.59,289.881C1200.44,281.979 1204.32,275.076 1209.22,269.172C1214.13,263.267 1219.89,258.622 1226.51,255.235C1233.13,251.849 1240.2,250.156 1247.74,250.156C1254.29,250.156 1260.44,251.458 1266.2,254.063C1271.97,256.668 1277.19,260.228 1281.89,264.743L1282.96,252.76L1312.83,252.76L1312.83,372.588ZM1228.32,315.279C1228.32,319.273 1229,323.051 1230.35,326.611C1231.7,330.171 1233.48,333.297 1235.69,335.988C1237.89,338.68 1240.49,340.808 1243.48,342.371C1246.46,343.934 1249.66,344.715 1253.08,344.715C1256.49,344.715 1259.66,343.934 1262.58,342.371C1265.49,340.808 1268.09,338.68 1270.37,335.988C1272.64,333.297 1274.42,330.171 1275.7,326.611C1276.98,323.051 1277.62,319.273 1277.62,315.279C1277.62,311.285 1276.98,307.508 1275.7,303.948C1274.42,300.388 1272.64,297.262 1270.37,294.57C1268.09,291.878 1265.49,289.751 1262.58,288.188C1259.66,286.625 1256.49,285.843 1253.08,285.843C1249.66,285.843 1246.46,286.625 1243.48,288.188C1240.49,289.751 1237.89,291.878 1235.69,294.57C1233.48,297.262 1231.7,300.388 1230.35,303.948C1229,307.508 1228.32,311.285 1228.32,315.279Z" style="fill:white;fill-rule:nonzero;"/>
                </g>
                <g transform="matrix(1.83415,0,0,1.83415,-128.778,-159.343)">
                    <path d="M1414.2,366.076C1412.64,367.812 1410.36,369.722 1407.37,371.806C1404.38,373.89 1400.9,375.801 1396.91,377.537C1392.93,379.274 1388.59,380.707 1383.9,381.835C1379.2,382.964 1374.44,383.529 1369.6,383.529C1361.49,383.529 1354.02,381.835 1347.19,378.449C1340.36,375.063 1334.49,370.374 1329.59,364.382C1324.68,358.391 1320.84,351.358 1318.06,343.282C1315.29,335.207 1313.9,326.48 1313.9,317.103C1313.9,307.725 1315.29,298.998 1318.06,290.923C1320.84,282.848 1324.68,275.814 1329.59,269.823C1334.49,263.832 1340.36,259.143 1347.19,255.756C1354.02,252.37 1361.49,250.677 1369.6,250.677C1378.28,250.677 1386.07,252.37 1392.97,255.756C1399.87,259.143 1405.74,263.788 1410.57,269.693C1415.41,275.597 1419.14,282.587 1421.78,290.662C1424.41,298.738 1425.73,307.464 1425.73,316.842C1425.73,319.1 1425.58,321.444 1425.3,323.875C1425.01,326.307 1424.73,328.564 1424.44,330.648L1349.97,330.388C1351.96,336.64 1355.05,341.112 1359.25,343.803C1363.45,346.495 1368.18,347.841 1373.44,347.841C1377.14,347.841 1380.38,347.407 1383.15,346.538C1385.92,345.67 1388.27,344.672 1390.19,343.543C1392.11,342.414 1393.64,341.285 1394.78,340.156C1395.92,339.028 1396.7,338.203 1397.13,337.682L1414.2,366.076ZM1390.51,306.422C1390.23,300.691 1388.45,295.785 1385.18,291.704C1381.91,287.623 1377.21,285.583 1371.09,285.583C1365.69,285.583 1361.03,287.276 1357.12,290.662C1353.2,294.049 1350.54,299.302 1349.11,306.422L1390.51,306.422Z" style="fill:white;fill-rule:nonzero;"/>
                </g>
            </g>
            <g transform="matrix(0.156277,0,0,0.220338,671.409,264.818)">
                <g transform="matrix(1.83415,0,0,1.83415,2952.91,255.261)">
                    <path d="M235.559,267.568C234.74,266.988 233.306,266.152 231.259,265.063C229.211,263.974 226.703,262.885 223.734,261.796C220.764,260.706 217.335,259.762 213.444,258.964C209.554,258.165 205.254,257.765 200.544,257.765C191.33,257.765 183.958,259.109 178.429,261.796C172.901,264.482 170.137,268.367 170.137,273.45C170.137,277.662 172.798,281.111 178.122,283.798C183.446,286.485 191.739,288.918 203.001,291.096C208.53,292.113 214.366,293.274 220.509,294.582C226.651,295.889 232.282,297.631 237.402,299.81C242.521,301.988 246.77,304.748 250.148,308.088C253.527,311.428 255.216,315.785 255.216,321.159C255.216,330.454 250.353,337.897 240.627,343.488C230.9,349.08 217.744,351.875 201.158,351.875C194.606,351.875 188.514,351.403 182.883,350.459C177.252,349.515 172.235,348.354 167.833,346.974C163.431,345.594 159.591,344.069 156.315,342.399C153.039,340.729 150.582,339.168 148.943,337.715L160.615,327.694C161.639,328.421 163.277,329.437 165.529,330.744C167.782,332.051 170.597,333.358 173.976,334.666C177.354,335.973 181.399,337.098 186.108,338.042C190.818,338.986 196.039,339.458 201.773,339.458C212.83,339.458 221.43,337.861 227.573,334.666C233.716,331.47 236.787,327.331 236.787,322.248C236.787,317.31 233.716,313.462 227.573,310.702C221.43,307.943 212.42,305.547 200.544,303.513C184.368,300.609 172.133,296.942 163.84,292.512C155.547,288.082 151.401,281.946 151.401,274.104C151.401,269.311 152.68,265.1 155.24,261.469C157.8,257.838 161.332,254.824 165.836,252.428C170.341,250.032 175.614,248.253 181.655,247.091C187.695,245.929 194.094,245.348 200.851,245.348C207.199,245.348 212.932,245.82 218.051,246.764C223.17,247.708 227.675,248.834 231.566,250.141C235.456,251.448 238.733,252.791 241.394,254.171C244.056,255.551 246.002,256.676 247.23,257.547L235.559,267.568Z" style="fill:white;fill-rule:nonzero;"/>
                </g>
                <g transform="matrix(1.83415,0,0,1.83415,2952.91,255.261)">
                    <path d="M286.238,247.309L289.924,219.642L304.359,219.642L304.359,247.309L350.738,247.309L350.738,259.072L304.359,259.072L304.359,320.723C304.359,327.694 305.946,332.487 309.12,335.101C312.294,337.715 317.055,339.022 323.402,339.022C327.088,339.022 331.235,338.696 335.842,338.042C340.449,337.389 345.619,336.554 351.353,335.537L351.353,347.954C345.415,349.261 339.886,350.205 334.767,350.786C329.648,351.367 325.041,351.658 320.945,351.658C314.393,351.658 308.915,350.968 304.513,349.588C300.111,348.208 296.527,346.284 293.763,343.815C290.999,341.346 289.053,338.405 287.927,334.992C286.801,331.579 286.238,327.84 286.238,323.773L286.238,259.072L257.366,259.072L257.366,247.309L286.238,247.309Z" style="fill:white;fill-rule:nonzero;"/>
                </g>
                <g transform="matrix(1.83415,0,0,1.83415,2952.91,255.261)">
                    <path d="M476.976,247.309L495.097,247.309L495.097,349.697L478.511,349.697L477.897,328.566C472.368,335.392 465.099,340.947 456.09,345.231C447.08,349.515 436.739,351.658 425.068,351.658C414.625,351.658 405.769,350.496 398.5,348.172C391.231,345.848 385.344,342.581 380.839,338.369C376.334,334.157 373.058,329.147 371.01,323.337C368.962,317.528 367.939,311.138 367.939,304.167L367.939,247.309L385.753,247.309L385.753,301.117C385.753,306.926 386.367,312.191 387.596,316.911C388.825,321.631 390.923,325.625 393.892,328.893C396.862,332.16 400.906,334.702 406.025,336.517C411.144,338.333 417.492,339.24 425.068,339.24C432.439,339.24 439.299,338.115 445.647,335.864C451.994,333.613 457.472,330.635 462.079,326.932C466.686,323.229 470.321,318.908 472.983,313.97C475.645,309.032 476.976,303.876 476.976,298.503L476.976,247.309Z" style="fill:white;fill-rule:nonzero;"/>
                </g>
                <g transform="matrix(1.83415,0,0,1.83415,2952.91,255.261)">
                    <path d="M642.834,331.18C636.896,337.57 629.269,342.581 619.952,346.211C610.635,349.842 599.834,351.658 587.548,351.658C577.105,351.658 567.43,350.242 558.523,347.41C549.616,344.578 541.937,340.765 535.487,335.973C529.037,331.18 523.969,325.552 520.283,319.089C516.597,312.627 514.754,305.764 514.754,298.503C514.754,291.241 516.597,284.379 520.283,277.916C523.969,271.453 529.037,265.826 535.487,261.033C541.937,256.24 549.616,252.428 558.523,249.596C567.43,246.764 577.105,245.348 587.548,245.348C599.424,245.348 609.97,247.091 619.184,250.576C628.399,254.062 635.975,258.855 641.913,264.954L641.913,192.847L660.035,192.847L660.035,349.697L643.756,349.697L642.834,331.18ZM533.183,298.503C533.183,304.167 534.565,309.468 537.33,314.406C540.094,319.344 543.933,323.664 548.848,327.368C553.762,331.071 559.598,333.976 566.355,336.082C573.112,338.187 580.381,339.24 588.162,339.24C596.763,339.24 604.492,338.187 611.352,336.082C618.212,333.976 623.996,331.071 628.706,327.368C633.415,323.664 637.05,319.344 639.609,314.406C642.169,309.468 643.449,304.167 643.449,298.503C643.449,292.839 642.169,287.538 639.609,282.6C637.05,277.662 633.364,273.341 628.552,269.638C623.74,265.935 617.904,263.03 611.045,260.924C604.185,258.818 596.558,257.765 588.162,257.765C580.381,257.765 573.112,258.818 566.355,260.924C559.598,263.03 553.762,265.935 548.848,269.638C543.933,273.341 540.094,277.662 537.33,282.6C534.565,287.538 533.183,292.839 533.183,298.503Z" style="fill:white;fill-rule:nonzero;"/>
                </g>
                <g transform="matrix(1.83415,0,0,1.83415,2952.91,255.261)">
                    <path d="M690.749,247.309L709.178,247.309L709.178,349.697L690.749,349.697L690.749,247.309ZM684.913,218.553C684.913,215.648 686.398,213.143 689.367,211.037C692.336,208.931 695.868,207.878 699.964,207.878C704.059,207.878 707.642,208.931 710.714,211.037C713.785,213.143 715.321,215.648 715.321,218.553C715.321,221.457 713.785,223.999 710.714,226.177C707.642,228.356 704.059,229.445 699.964,229.445C695.868,229.445 692.336,228.356 689.367,226.177C686.398,223.999 684.913,221.457 684.913,218.553Z" style="fill:white;fill-rule:nonzero;"/>
                </g>
                <g transform="matrix(1.83415,0,0,1.83415,2952.91,255.261)">
                    <path d="M729.757,298.503C729.757,291.241 731.6,284.379 735.285,277.916C738.971,271.453 744.09,265.826 750.643,261.033C757.195,256.24 764.976,252.428 773.986,249.596C782.995,246.764 792.722,245.348 803.165,245.348C813.812,245.348 823.59,246.764 832.497,249.596C841.404,252.428 849.134,256.24 855.687,261.033C862.239,265.826 867.358,271.453 871.044,277.916C874.73,284.379 876.573,291.241 876.573,298.503C876.573,305.764 874.73,312.627 871.044,319.089C867.358,325.552 862.239,331.18 855.687,335.973C849.134,340.765 841.404,344.578 832.497,347.41C823.59,350.242 813.812,351.658 803.165,351.658C792.722,351.658 782.995,350.242 773.986,347.41C764.976,344.578 757.195,340.765 750.643,335.973C744.09,331.18 738.971,325.552 735.285,319.089C731.6,312.627 729.757,305.764 729.757,298.503ZM748.186,298.503C748.186,304.167 749.568,309.468 752.332,314.406C755.096,319.344 758.884,323.664 763.696,327.368C768.508,331.071 774.293,333.976 781.05,336.082C787.807,338.187 795.179,339.24 803.165,339.24C811.15,339.24 818.522,338.187 825.279,336.082C832.036,333.976 837.872,331.071 842.787,327.368C847.701,323.664 851.489,319.344 854.151,314.406C856.813,309.468 858.144,304.167 858.144,298.503C858.144,292.839 856.813,287.538 854.151,282.6C851.489,277.662 847.701,273.341 842.787,269.638C837.872,265.935 832.036,263.03 825.279,260.924C818.522,258.818 811.15,257.765 803.165,257.765C795.179,257.765 787.807,258.818 781.05,260.924C774.293,263.03 768.508,265.935 763.696,269.638C758.884,273.341 755.096,277.662 752.332,282.6C749.568,287.538 748.186,292.839 748.186,298.503Z" style="fill:white;fill-rule:nonzero;"/>
                </g>
            </g>
        </g>
    </g>
</svg>
