<?xml version="1.0" encoding="UTF-8" standalone="no"?>
<!DOCTYPE svg PUBLIC "-//W3C//DTD SVG 1.1//EN" "http://www.w3.org/Graphics/SVG/1.1/DTD/svg11.dtd">
<svg width="100%" height="100%" viewBox="0 0 3661 857" version="1.1" xmlns="http://www.w3.org/2000/svg" xmlns:xlink="http://www.w3.org/1999/xlink" xml:space="preserve" xmlns:serif="http://www.serif.com/" style="fill-rule:evenodd;clip-rule:evenodd;stroke-linejoin:round;stroke-miterlimit:2;">
    <g transform="matrix(1,0,0,1,-71.2135,-324.901)">
        <rect x="1564.66" y="344.182" width="48.51" height="818.094" style="fill:white;fill-rule:nonzero;"/>
    </g>
    <g transform="matrix(1,0,0,1,-71.2135,-324.901)">
        <path d="M1241.61,629.234L1256.46,324.901L1005.85,498.245L720.984,390.052L808.417,681.958C750.703,772.438 520.193,937.703 520.193,937.703C522.646,936.281 796.672,794.333 894.333,698.745L840.25,518.229L1016.44,585.13L1171.42,477.938L1162.21,666.172L1312.06,780.432L1130.22,829.865L1067.84,1007.67L964.651,850.01C513.323,1033.01 71.214,1116.38 71.214,1116.38C71.214,1116.38 382.089,1097.57 922.13,926.531L1089.02,1181.47L1189.85,893.953L1483.89,814.016L1241.61,629.234Z" style="fill:rgb(255,60,158);fill-rule:nonzero;"/>
    </g>
    <g transform="matrix(1,0,0,1,1619.14,267.099)">
        <g>
            <path d="M14.604,0L14.604,-240.396L104.583,-240.396L175.313,-137.792L175.979,-138.125L175.979,-240.396L264.979,-240.396L264.979,0L174.979,0L104.271,-102.604L103.604,-102.271L103.604,0L14.604,0Z" style="fill:white;fill-rule:nonzero;"/>
        </g>
    </g>
    <g transform="matrix(1,0,0,1,1898.72,267.099)">
        <g>
            <path d="M2,0L93.646,-240.396L188.271,-240.396L279.917,0L173,0L164.688,-31.542L109.583,-31.542L100.271,0L2,0ZM126.833,-91.979L148.75,-91.979L138.125,-140.792L137.458,-140.792L126.833,-91.979Z" style="fill:white;fill-rule:nonzero;"/>
        </g>
    </g>
    <g transform="matrix(1,0,0,1,2180.62,267.099)">
        <g>
            <path d="M78.354,0L78.354,-158.708L11.292,-158.708L11.292,-240.396L244.375,-240.396L244.375,-158.708L177.313,-158.708L177.313,0L78.354,0Z" style="fill:white;fill-rule:nonzero;"/>
        </g>
    </g>
    <g transform="matrix(1,0,0,1,2436.29,267.099)">
        <g>
            <rect x="14.604" y="-240.396" width="98.958" height="240.396" style="fill:white;fill-rule:nonzero;"/>
        </g>
    </g>
    <g transform="matrix(1,0,0,1,2564.46,267.099)">
        <g>
            <path d="M9.292,-120.208C9.292,-137.693 12.719,-153.901 19.583,-168.833C26.443,-183.776 35.964,-196.896 48.146,-208.187C60.323,-219.479 74.547,-228.276 90.813,-234.583C107.073,-240.885 124.615,-244.042 143.438,-244.042C162.255,-244.042 179.797,-240.885 196.063,-234.583C212.339,-228.276 226.563,-219.479 238.729,-208.187C250.906,-196.896 260.427,-183.776 267.292,-168.833C274.151,-153.901 277.583,-137.693 277.583,-120.208C277.583,-102.708 274.151,-86.484 267.292,-71.542C260.427,-56.609 250.906,-43.5 238.729,-32.208C226.563,-20.917 212.339,-12.115 196.063,-5.812C179.797,0.49 162.255,3.646 143.438,3.646C124.615,3.646 107.073,0.49 90.813,-5.812C74.547,-12.115 60.323,-20.917 48.146,-32.208C35.964,-43.5 26.443,-56.609 19.583,-71.542C12.719,-86.484 9.292,-102.708 9.292,-120.208ZM106.25,-118.542C106.25,-108.359 109.901,-99.615 117.208,-92.312C124.51,-85.005 133.255,-81.354 143.438,-81.354C153.839,-81.354 162.635,-85.005 169.833,-92.312C177.026,-99.615 180.625,-108.359 180.625,-118.542C180.625,-128.943 177.026,-137.74 169.833,-144.937C162.635,-152.13 153.839,-155.729 143.438,-155.729C133.255,-155.729 124.51,-152.13 117.208,-144.937C109.901,-137.74 106.25,-128.943 106.25,-118.542Z" style="fill:white;fill-rule:nonzero;"/>
        </g>
    </g>
    <g transform="matrix(1,0,0,1,2851.34,267.099)">
        <g>
            <path d="M14.604,0L14.604,-240.396L104.583,-240.396L175.313,-137.792L175.979,-138.125L175.979,-240.396L264.979,-240.396L264.979,0L174.979,0L104.271,-102.604L103.604,-102.271L103.604,0L14.604,0Z" style="fill:white;fill-rule:nonzero;"/>
        </g>
    </g>
    <g transform="matrix(1,0,0,1,3130.91,267.099)">
        <g>
            <path d="M2,0L93.646,-240.396L188.271,-240.396L279.917,0L173,0L164.688,-31.542L109.583,-31.542L100.271,0L2,0ZM126.833,-91.979L148.75,-91.979L138.125,-140.792L137.458,-140.792L126.833,-91.979Z" style="fill:white;fill-rule:nonzero;"/>
        </g>
    </g>
    <g transform="matrix(1,0,0,1,3412.82,267.099)">
        <g>
            <path d="M14.604,0L14.604,-240.396L113.563,-240.396L113.563,-85.333L187.938,-85.333L187.938,0L14.604,0Z" style="fill:white;fill-rule:nonzero;"/>
        </g>
    </g>
    <g transform="matrix(1,0,0,1,1619.14,549.099)">
        <g>
            <path d="M1,-0.667L66.75,-96.292C76.042,-109.792 82.734,-120.083 86.833,-127.167C90.927,-134.25 92.979,-140.448 92.979,-145.771C92.979,-152.406 90.542,-157.167 85.667,-160.042C80.792,-162.917 74.698,-164.354 67.396,-164.354C59.214,-164.354 50.302,-162.917 40.667,-160.042C31.042,-157.167 22.688,-154.177 15.604,-151.083L15.604,-225.458C26.448,-230.542 38.792,-234.906 52.625,-238.562C66.458,-242.214 81.568,-244.042 97.958,-244.042C115.443,-244.042 130.271,-241.823 142.438,-237.396C154.615,-232.979 164.469,-227.062 172,-219.646C179.526,-212.229 185.063,-204.031 188.604,-195.062C192.146,-186.104 193.917,-177.089 193.917,-168.021C193.917,-155.396 191.146,-143.714 185.604,-132.979C180.073,-122.24 172.938,-112.276 164.188,-103.083C155.448,-93.901 146.318,-85.219 136.792,-77.042L137.125,-76.375L190.583,-76.375L190.583,0L1.333,0L1,-0.667Z" style="fill:rgb(255,60,158);fill-rule:nonzero;"/>
        </g>
    </g>
    <g transform="matrix(1,0,0,1,1821.35,549.099)">
        <g>
            <path d="M29.229,-31.875C21.698,-41.833 16.49,-53.948 13.604,-68.229C10.729,-82.505 9.292,-99.833 9.292,-120.208C9.292,-140.568 10.729,-157.885 13.604,-172.167C16.49,-186.443 21.698,-198.562 29.229,-208.521C38.74,-221.354 51.354,-230.479 67.063,-235.896C82.781,-241.323 99.719,-244.042 117.875,-244.042C136.25,-244.042 153.234,-241.323 168.833,-235.896C184.443,-230.479 197.005,-221.354 206.521,-208.521C214.047,-198.562 219.25,-186.443 222.125,-172.167C225.01,-157.885 226.458,-140.568 226.458,-120.208C226.458,-99.833 225.01,-82.505 222.125,-68.229C219.25,-53.948 214.047,-41.833 206.521,-31.875C197.005,-19.042 184.443,-9.906 168.833,-4.479C153.234,0.938 136.25,3.646 117.875,3.646C99.719,3.646 82.781,0.938 67.063,-4.479C51.354,-9.906 38.74,-19.042 29.229,-31.875ZM109.896,-72.708C111.005,-66.068 113.667,-62.75 117.875,-62.75C122.083,-62.75 124.74,-66.068 125.854,-72.708C126.505,-77.135 126.943,-83.552 127.167,-91.958C127.385,-100.375 127.5,-109.792 127.5,-120.208C127.5,-130.833 127.385,-140.344 127.167,-148.75C126.943,-157.167 126.505,-163.479 125.854,-167.687C124.74,-174.323 122.083,-177.646 117.875,-177.646C113.667,-177.646 111.005,-174.323 109.896,-167.687C109.24,-163.479 108.802,-157.109 108.583,-148.583C108.359,-140.068 108.25,-130.609 108.25,-120.208C108.25,-109.583 108.359,-100.062 108.583,-91.646C108.802,-83.229 109.24,-76.917 109.896,-72.708Z" style="fill:rgb(255,60,158);fill-rule:nonzero;"/>
        </g>
    </g>
    <g transform="matrix(1,0,0,1,2057.1,549.099)">
        <g>
            <path d="M1,-0.667L66.75,-96.292C76.042,-109.792 82.734,-120.083 86.833,-127.167C90.927,-134.25 92.979,-140.448 92.979,-145.771C92.979,-152.406 90.542,-157.167 85.667,-160.042C80.792,-162.917 74.698,-164.354 67.396,-164.354C59.214,-164.354 50.302,-162.917 40.667,-160.042C31.042,-157.167 22.688,-154.177 15.604,-151.083L15.604,-225.458C26.448,-230.542 38.792,-234.906 52.625,-238.562C66.458,-242.214 81.568,-244.042 97.958,-244.042C115.443,-244.042 130.271,-241.823 142.438,-237.396C154.615,-232.979 164.469,-227.062 172,-219.646C179.526,-212.229 185.063,-204.031 188.604,-195.062C192.146,-186.104 193.917,-177.089 193.917,-168.021C193.917,-155.396 191.146,-143.714 185.604,-132.979C180.073,-122.24 172.938,-112.276 164.188,-103.083C155.448,-93.901 146.318,-85.219 136.792,-77.042L137.125,-76.375L190.583,-76.375L190.583,0L1.333,0L1,-0.667Z" style="fill:rgb(255,60,158);fill-rule:nonzero;"/>
        </g>
    </g>
    <g transform="matrix(1,0,0,1,2259.31,549.099)">
        <g>
            <path d="M7.979,-8.625L14.271,-82.021C23.573,-79.354 33.042,-77.026 42.667,-75.042C52.292,-73.052 61.422,-72.062 70.063,-72.062C79.13,-72.062 85.604,-73.276 89.479,-75.708C93.354,-78.135 95.292,-81.677 95.292,-86.333C95.292,-90.984 93.13,-94.359 88.813,-96.458C84.505,-98.552 76.484,-99.604 64.75,-99.604C60.984,-99.604 56.276,-99.547 50.625,-99.437C44.984,-99.323 39.068,-99.156 32.875,-98.937C26.677,-98.729 21.031,-98.51 15.938,-98.292L28.563,-240.396L185.938,-240.396L178.646,-160.042L111.896,-160.042L110.896,-147.104C121.297,-146.656 131.422,-145.047 141.271,-142.271C151.13,-139.505 160.094,-135.406 168.167,-129.979C176.25,-124.562 182.672,-117.589 187.438,-109.062C192.198,-100.547 194.583,-90.198 194.583,-78.021C194.583,-64.521 191.589,-52.677 185.604,-42.5C179.63,-32.318 171.385,-23.797 160.875,-16.937C150.359,-10.073 138.344,-4.927 124.833,-1.5C111.333,1.927 97.063,3.646 82.021,3.646C67.188,3.646 53.068,2.318 39.667,-0.333C26.276,-2.984 15.714,-5.75 7.979,-8.625Z" style="fill:rgb(255,60,158);fill-rule:nonzero;"/>
        </g>
    </g>
    <g transform="matrix(1,0,0,1,2560.14,549.099)">
        <g>
            <path d="M15.271,-15.937L15.271,-97.625C26.115,-90.76 36.63,-85.229 46.813,-81.021C56.99,-76.812 66.292,-73.76 74.708,-71.875C83.125,-70 89.651,-69.062 94.292,-69.062C99.385,-69.062 102.708,-69.885 104.25,-71.542C105.802,-73.208 106.583,-75.042 106.583,-77.042C106.583,-79.469 105.917,-81.234 104.583,-82.333C103.26,-83.443 101.49,-84.219 99.271,-84.667C95.521,-85.776 89.656,-87.104 81.688,-88.646C73.714,-90.198 65.073,-92.859 55.771,-96.625C46.479,-100.385 37.734,-105.812 29.542,-112.896C23.344,-118.646 18.255,-125.562 14.271,-133.646C10.281,-141.729 8.292,-151.526 8.292,-163.042C8.292,-179.193 12.219,-193.297 20.083,-205.354C27.943,-217.422 39.234,-226.885 53.958,-233.75C68.677,-240.609 86.109,-244.042 106.25,-244.042C115.984,-244.042 126.052,-243.26 136.458,-241.708C146.875,-240.167 156.896,-237.958 166.521,-235.083C176.146,-232.208 184.609,-228.885 191.917,-225.125L191.917,-146.437C176.427,-154.172 161.984,-159.646 148.583,-162.854C135.193,-166.073 125.401,-167.687 119.208,-167.687C114.333,-167.687 111.063,-166.906 109.396,-165.354C107.74,-163.812 106.917,-162.151 106.917,-160.375C106.917,-157.943 107.688,-156.115 109.229,-154.896C110.781,-153.672 112.563,-152.734 114.563,-152.083C117.88,-151.193 123.297,-149.917 130.813,-148.25C138.339,-146.594 146.693,-144.109 155.875,-140.792C165.068,-137.469 173.542,-132.708 181.292,-126.5C197.458,-113.219 205.542,-95.958 205.542,-74.708C205.542,-59.427 201.552,-45.865 193.583,-34.021C185.609,-22.187 174.151,-12.948 159.208,-6.312C144.26,0.323 126.276,3.646 105.25,3.646C95.292,3.646 84.833,2.865 73.875,1.313C62.917,-0.229 52.401,-2.437 42.333,-5.312C32.26,-8.187 23.24,-11.729 15.271,-15.937Z" style="fill:white;fill-rule:nonzero;"/>
        </g>
    </g>
    <g transform="matrix(1,0,0,1,2771.98,549.099)">
        <g>
            <path d="M2,0L93.646,-240.396L188.271,-240.396L279.917,0L173,0L164.688,-31.542L109.583,-31.542L100.271,0L2,0ZM126.833,-91.979L148.75,-91.979L138.125,-140.792L137.458,-140.792L126.833,-91.979Z" style="fill:white;fill-rule:nonzero;"/>
        </g>
    </g>
    <g transform="matrix(1,0,0,1,3053.88,549.099)">
        <g>
            <path d="M14.604,0L14.604,-240.396L113.563,-240.396L113.563,-85.333L187.938,-85.333L187.938,0L14.604,0Z" style="fill:white;fill-rule:nonzero;"/>
        </g>
    </g>
    <g transform="matrix(1,0,0,1,3253.11,549.099)">
        <g>
            <path d="M14.604,0L14.604,-240.396L187.604,-240.396L187.604,-160.042L113.563,-160.042L113.563,-147.104L173.333,-147.104L173.333,-89.979L113.563,-89.979L113.563,-76.375L192.25,-76.375L192.25,0L14.604,0Z" style="fill:white;fill-rule:nonzero;"/>
        </g>
    </g>
    <g transform="matrix(1,0,0,1,3455.32,549.099)">
        <g>
            <path d="M15.271,-15.937L15.271,-97.625C26.115,-90.76 36.63,-85.229 46.813,-81.021C56.99,-76.812 66.292,-73.76 74.708,-71.875C83.125,-70 89.651,-69.062 94.292,-69.062C99.385,-69.062 102.708,-69.885 104.25,-71.542C105.802,-73.208 106.583,-75.042 106.583,-77.042C106.583,-79.469 105.917,-81.234 104.583,-82.333C103.26,-83.443 101.49,-84.219 99.271,-84.667C95.521,-85.776 89.656,-87.104 81.688,-88.646C73.714,-90.198 65.073,-92.859 55.771,-96.625C46.479,-100.385 37.734,-105.812 29.542,-112.896C23.344,-118.646 18.255,-125.562 14.271,-133.646C10.281,-141.729 8.292,-151.526 8.292,-163.042C8.292,-179.193 12.219,-193.297 20.083,-205.354C27.943,-217.422 39.234,-226.885 53.958,-233.75C68.677,-240.609 86.109,-244.042 106.25,-244.042C115.984,-244.042 126.052,-243.26 136.458,-241.708C146.875,-240.167 156.896,-237.958 166.521,-235.083C176.146,-232.208 184.609,-228.885 191.917,-225.125L191.917,-146.437C176.427,-154.172 161.984,-159.646 148.583,-162.854C135.193,-166.073 125.401,-167.687 119.208,-167.687C114.333,-167.687 111.063,-166.906 109.396,-165.354C107.74,-163.812 106.917,-162.151 106.917,-160.375C106.917,-157.943 107.688,-156.115 109.229,-154.896C110.781,-153.672 112.563,-152.734 114.563,-152.083C117.88,-151.193 123.297,-149.917 130.813,-148.25C138.339,-146.594 146.693,-144.109 155.875,-140.792C165.068,-137.469 173.542,-132.708 181.292,-126.5C197.458,-113.219 205.542,-95.958 205.542,-74.708C205.542,-59.427 201.552,-45.865 193.583,-34.021C185.609,-22.187 174.151,-12.948 159.208,-6.312C144.26,0.323 126.276,3.646 105.25,3.646C95.292,3.646 84.833,2.865 73.875,1.313C62.917,-0.229 52.401,-2.437 42.333,-5.312C32.26,-8.187 23.24,-11.729 15.271,-15.937Z" style="fill:white;fill-rule:nonzero;"/>
        </g>
    </g>
    <g transform="matrix(1,0,0,1,1619.14,831.099)">
        <g>
            <path d="M2,0L93.646,-240.396L188.271,-240.396L279.917,0L173,0L164.688,-31.542L109.583,-31.542L100.271,0L2,0ZM126.833,-91.979L148.75,-91.979L138.125,-140.792L137.458,-140.792L126.833,-91.979Z" style="fill:white;fill-rule:nonzero;"/>
        </g>
    </g>
    <g transform="matrix(1,0,0,1,1901.04,831.099)">
        <g>
            <path d="M73.708,0L3.313,-240.396L108.917,-240.396L132.813,-128.833L133.479,-128.833L153.729,-240.396L220.479,-240.396L240.396,-128.833L241.063,-128.833L265.292,-240.396L360.938,-240.396L290.208,0L202.875,0L182.292,-93.646L181.625,-93.646L161.375,0L73.708,0Z" style="fill:white;fill-rule:nonzero;"/>
        </g>
    </g>
    <g transform="matrix(1,0,0,1,2265.29,831.099)">
        <g>
            <path d="M2,0L93.646,-240.396L188.271,-240.396L279.917,0L173,0L164.688,-31.542L109.583,-31.542L100.271,0L2,0ZM126.833,-91.979L148.75,-91.979L138.125,-140.792L137.458,-140.792L126.833,-91.979Z" style="fill:white;fill-rule:nonzero;"/>
        </g>
    </g>
    <g transform="matrix(1,0,0,1,2547.19,831.099)">
        <g>
            <path d="M14.604,0L14.604,-240.396L113.229,-240.396C123.188,-240.396 133.531,-239.781 144.271,-238.562C155.005,-237.354 165.464,-235.146 175.646,-231.937C185.823,-228.729 195.01,-224.297 203.208,-218.646C211.401,-213.005 217.927,-205.698 222.792,-196.729C227.667,-187.771 230.104,-176.865 230.104,-164.021C230.104,-151.187 227.333,-140.062 221.792,-130.646C216.26,-121.24 208.964,-113.333 199.896,-106.917L254.667,0L150.75,0L114.896,-79.021L113.563,-79.021L113.563,0L14.604,0ZM113.563,-134.146L120.854,-134.146C128.604,-134.146 134.302,-135.969 137.958,-139.625C141.609,-143.276 143.438,-147.646 143.438,-152.729C143.438,-157.823 141.609,-162.146 137.958,-165.687C134.302,-169.229 128.604,-171 120.854,-171L113.563,-171L113.563,-134.146Z" style="fill:white;fill-rule:nonzero;"/>
        </g>
    </g>
    <g transform="matrix(1,0,0,1,2797.55,831.099)">
        <g>
            <path d="M115.875,0L14.604,0L14.604,-240.396L115.208,-240.396C138.458,-240.396 158.99,-237.073 176.813,-230.437C194.63,-223.797 209.63,-214.609 221.813,-202.875C232.438,-192.693 240.901,-180.74 247.208,-167.021C253.51,-153.297 256.667,-137.693 256.667,-120.208C256.667,-103.594 253.672,-88.318 247.688,-74.375C241.714,-60.427 233.302,-48.255 222.458,-37.854C210.068,-25.896 194.906,-16.594 176.979,-9.958C159.047,-3.318 138.677,0 115.875,0ZM113.563,-162.042L113.563,-78.354L115.875,-78.354C124.292,-78.354 131.594,-79.568 137.792,-82C144,-84.443 149.089,-87.771 153.063,-91.979C156.38,-95.521 159.031,-99.667 161.021,-104.417C163.021,-109.177 164.021,-114.443 164.021,-120.208C164.021,-126.177 163.021,-131.594 161.021,-136.458C159.031,-141.333 156.38,-145.542 153.063,-149.083C149.521,-152.844 144.818,-155.943 138.958,-158.375C133.094,-160.818 125.625,-162.042 116.542,-162.042L113.563,-162.042Z" style="fill:white;fill-rule:nonzero;"/>
        </g>
    </g>
    <g transform="matrix(1,0,0,1,3063.51,831.099)">
        <g>
            <path d="M15.271,-15.937L15.271,-97.625C26.115,-90.76 36.63,-85.229 46.813,-81.021C56.99,-76.812 66.292,-73.76 74.708,-71.875C83.125,-70 89.651,-69.062 94.292,-69.062C99.385,-69.062 102.708,-69.885 104.25,-71.542C105.802,-73.208 106.583,-75.042 106.583,-77.042C106.583,-79.469 105.917,-81.234 104.583,-82.333C103.26,-83.443 101.49,-84.219 99.271,-84.667C95.521,-85.776 89.656,-87.104 81.688,-88.646C73.714,-90.198 65.073,-92.859 55.771,-96.625C46.479,-100.385 37.734,-105.812 29.542,-112.896C23.344,-118.646 18.255,-125.562 14.271,-133.646C10.281,-141.729 8.292,-151.526 8.292,-163.042C8.292,-179.193 12.219,-193.297 20.083,-205.354C27.943,-217.422 39.234,-226.885 53.958,-233.75C68.677,-240.609 86.109,-244.042 106.25,-244.042C115.984,-244.042 126.052,-243.26 136.458,-241.708C146.875,-240.167 156.896,-237.958 166.521,-235.083C176.146,-232.208 184.609,-228.885 191.917,-225.125L191.917,-146.437C176.427,-154.172 161.984,-159.646 148.583,-162.854C135.193,-166.073 125.401,-167.687 119.208,-167.687C114.333,-167.687 111.063,-166.906 109.396,-165.354C107.74,-163.812 106.917,-162.151 106.917,-160.375C106.917,-157.943 107.688,-156.115 109.229,-154.896C110.781,-153.672 112.563,-152.734 114.563,-152.083C117.88,-151.193 123.297,-149.917 130.813,-148.25C138.339,-146.594 146.693,-144.109 155.875,-140.792C165.068,-137.469 173.542,-132.708 181.292,-126.5C197.458,-113.219 205.542,-95.958 205.542,-74.708C205.542,-59.427 201.552,-45.865 193.583,-34.021C185.609,-22.187 174.151,-12.948 159.208,-6.312C144.26,0.323 126.276,3.646 105.25,3.646C95.292,3.646 84.833,2.865 73.875,1.313C62.917,-0.229 52.401,-2.437 42.333,-5.312C32.26,-8.187 23.24,-11.729 15.271,-15.937Z" style="fill:white;fill-rule:nonzero;"/>
        </g>
    </g>
    <g transform="matrix(1,0,0,1,3275.36,831.099)">
        <g>
            <path d="M13.292,-47.479C13.292,-56.99 15.5,-65.568 19.917,-73.208C24.344,-80.844 30.438,-86.99 38.188,-91.646C45.938,-96.297 54.677,-98.625 64.417,-98.625C74.151,-98.625 82.896,-96.297 90.646,-91.646C98.396,-86.99 104.479,-80.844 108.896,-73.208C113.323,-65.568 115.542,-56.99 115.542,-47.479C115.542,-38.187 113.323,-29.667 108.896,-21.917C104.479,-14.167 98.396,-7.964 90.646,-3.312C82.896,1.323 74.151,3.646 64.417,3.646C54.677,3.646 45.938,1.323 38.188,-3.312C30.438,-7.964 24.344,-14.167 19.917,-21.917C15.5,-29.667 13.292,-38.187 13.292,-47.479Z" style="fill:rgb(255,60,158);fill-rule:nonzero;"/>
        </g>
    </g>
</svg>
